HIERARCHY
ROOT Hips
{
	OFFSET 0.000000 8.830580 0.000000
	CHANNELS 6 Xposition Yposition Zposition Zrotation Yrotation Xrotation 
	JOINT Spine
	{
		OFFSET 0.000000 0.010000 0.000000
		CHANNELS 3 Zrotation Yrotation Xrotation
		JOINT Spine1
		{
			OFFSET 0.000000 2.459130 0.000000
			CHANNELS 3 Zrotation Yrotation Xrotation
			JOINT Neck
			{
				OFFSET 0.000000 2.484630 0.000000
				CHANNELS 3 Zrotation Yrotation Xrotation
				JOINT Head_virtual
				{
					OFFSET 0.000000 0.000000 0.000000
					CHANNELS 3 Zrotation Yrotation Xrotation
					JOINT Head
					{
						OFFSET 0.000000 0.927525 0.000000
						CHANNELS 3 Zrotation Yrotation Xrotation
						End Site
						{
							OFFSET 0.000000 0.000000 0.000000
						}
					}
				}
				JOINT LeftUpArm_virtual
				{
					OFFSET 0.000000 0.000000 0.000000
					CHANNELS 3 Zrotation Yrotation Xrotation
					JOINT LeftUpArm
					{
						OFFSET 1.248820 0.000000 0.000000
						CHANNELS 3 Zrotation Yrotation Xrotation
						JOINT LeftForeArm
						{
							OFFSET 2.597580 0.000000 0.000000
							CHANNELS 3 Zrotation Yrotation Xrotation
							JOINT LeftHand
							{
								OFFSET 2.455420 0.000000 0.000000
								CHANNELS 3 Zrotation Yrotation Xrotation
								End Site
								{
									OFFSET 0.000000 0.000000 0.000000
								}
							}
						}
					}
				}
				JOINT RightUpArm_virtual
				{
					OFFSET -0.000000 -0.000000 -0.000000
					CHANNELS 3 Zrotation Yrotation Xrotation
					JOINT RightUpArm
					{
						OFFSET -1.248820 -0.000000 -0.000000
						CHANNELS 3 Zrotation Yrotation Xrotation
						JOINT RightForeArm
						{
							OFFSET -2.597580 -0.000000 -0.000000
							CHANNELS 3 Zrotation Yrotation Xrotation
							JOINT RightHand
							{
								OFFSET -2.455420 -0.000000 -0.000000
								CHANNELS 3 Zrotation Yrotation Xrotation
								End Site
								{
									OFFSET 0.000000 0.000000 0.000000
								}
							}
						}
					}
				}
			}
		}
	}
	JOINT LeftUpLeg
	{
		OFFSET 1.271939 0.000000 0.000000
		CHANNELS 3 Zrotation Yrotation Xrotation
		JOINT LeftLowLeg
		{
			OFFSET 0.000000 -4.342910 0.000000
			CHANNELS 3 Zrotation Yrotation Xrotation
			JOINT LeftFoot
			{
				OFFSET 0.000000 -4.487670 0.000000
				CHANNELS 3 Zrotation Yrotation Xrotation
				JOINT LeftToeBase
				{
					OFFSET 0.000000 0.000000 1.515070
					CHANNELS 3 Zrotation Yrotation Xrotation
					End Site
					{
						OFFSET 0.000000 0.000000 0.000000
					}
				}
			}
		}
	}
	JOINT RightUpLeg
	{
		OFFSET -1.271939 0.000000 0.000000
		CHANNELS 3 Zrotation Yrotation Xrotation
		JOINT RightLowLeg
		{
			OFFSET 0.000000 -4.342910 0.000000
			CHANNELS 3 Zrotation Yrotation Xrotation
			JOINT RightFoot
			{
				OFFSET 0.000000 -4.487670 0.000000
				CHANNELS 3 Zrotation Yrotation Xrotation
				JOINT RightToeBase
				{
					OFFSET 0.000000 0.000000 1.515070
					CHANNELS 3 Zrotation Yrotation Xrotation
					End Site
					{
						OFFSET 0.000000 0.000000 0.000000
					}
				}
			}
		}
	}
}
MOTION
Frames: 17
Frame Time: 0.041667
-15.205838 8.912541 34.978807 178.480382 -1.256684 -178.613731 2.630383 1.091812 -20.874668 -7.041154 4.453078 19.869796 0.000000 0.000000 0.000000 14.401335 3.937328 16.025262 -8.504177 -6.532851 -83.316634 -26.578400 2.380360 5.165009 -44.751202 -6.677650 18.598600 0.000000 -21.502899 0.000000 4.919990 17.088100 -8.216790 31.551901 -6.227840 -1.174011 48.157200 0.630228 13.734009 0.000000 20.844900 0.000000 4.901950 -9.191460 -16.864201 -2.625705 -9.678364 -2.936785 0.000000 0.000000 16.168501 -18.579201 12.560304 -7.356394 0.000000 0.000000 -19.946580 1.351283 17.833652 -4.469927 0.000000 0.000000 21.045200 32.627404 -7.069855 -14.449423 0.000000 0.000000 -15.752469 
-15.203993 8.912267 34.980014 178.479880 -1.310598 -178.647015 2.646509 1.114376 -20.871132 -7.047542 4.463618 19.919463 0.000000 0.000000 0.000000 14.402798 3.866168 15.854501 -8.553416 -6.530024 -83.288101 -26.586700 2.356850 5.210999 -44.664200 -6.845580 18.659300 0.000000 -21.449200 0.000000 4.976140 17.020300 -7.909330 31.557899 -6.178780 -1.221008 48.111900 0.657829 13.847992 0.000000 20.801701 0.000000 4.998670 -9.250160 -16.732201 -2.621833 -9.748081 -2.954972 0.000000 0.000000 16.241301 -18.609932 12.576331 -7.387195 0.000000 0.000000 -19.910250 1.376879 17.812542 -4.446303 0.000000 0.000000 21.068701 32.608323 -7.106129 -14.466516 0.000000 0.000000 -15.767696 
-15.202273 8.911879 34.983056 178.478522 -1.342701 -178.725263 2.674747 1.162976 -20.769376 -7.085842 4.462652 19.944119 0.000000 0.000000 0.000000 14.437560 3.778674 15.648291 -8.676338 -6.491095 -83.277199 -26.580400 2.350050 5.212006 -44.543201 -6.974820 18.983200 0.000000 -21.534201 0.000000 5.130780 16.962200 -7.286270 31.570200 -6.185550 -1.184998 48.057701 0.791885 14.079010 0.000000 20.837200 0.000000 4.838770 -9.194340 -16.278999 -2.629347 -9.832167 -2.922431 0.000000 0.000000 16.288099 -18.639996 12.634825 -7.418110 0.000000 0.000000 -19.896090 1.405300 17.797417 -4.413694 0.000000 0.000000 21.137100 32.594005 -7.113167 -14.471683 0.000000 0.000000 -15.778193 
-15.200600 8.911566 34.985528 178.475105 -1.417212 -178.745488 2.698825 1.194405 -20.750316 -7.104729 4.469887 20.002726 0.000000 0.000000 0.000000 14.429168 3.733667 15.423781 -8.708370 -6.470279 -83.268164 -26.569300 2.278610 5.178986 -44.426601 -7.029320 19.483101 0.000000 -21.675400 0.000000 5.290180 16.822500 -6.769090 31.584200 -6.152550 -1.148987 47.971699 0.913186 14.334015 0.000000 20.851601 0.000000 4.775050 -9.139180 -16.272800 -2.623778 -9.926721 -2.957982 0.000000 0.000000 16.352501 -18.628967 12.661596 -7.429658 0.000000 0.000000 -19.937190 1.428798 17.820394 -4.412279 0.000000 0.000000 21.172199 32.635534 -7.179414 -14.531609 0.000000 0.000000 -15.772350 
-15.198236 8.911440 34.988881 178.472676 -1.522093 -178.777882 2.701411 1.166346 -20.722890 -7.078349 4.469833 20.088519 0.000000 0.000000 0.000000 14.383120 3.750294 15.200891 -8.741280 -6.442396 -83.266449 -26.558100 2.232210 5.144012 -44.337002 -7.109640 20.033100 0.000000 -21.851601 0.000000 5.572720 16.658199 -6.120150 31.580601 -6.122080 -1.115997 47.887299 1.068380 14.673004 0.000000 20.904100 0.000000 4.729910 -9.176420 -16.564199 -2.611194 -10.024285 -2.993042 0.000000 0.000000 16.419901 -18.675726 12.649640 -7.431360 0.000000 0.000000 -19.899230 1.456006 17.742526 -4.405783 0.000000 0.000000 21.211599 32.646281 -7.204567 -14.555426 0.000000 0.000000 -15.769821 
-15.196328 8.910586 34.997256 178.435316 -1.404626 -179.024189 2.706656 1.250620 -20.349663 -7.047444 4.514598 20.057191 0.000000 0.000000 0.000000 14.227595 3.902349 15.066905 -8.677219 -6.483289 -83.391681 -26.605400 2.198780 5.160004 -44.215199 -7.215490 20.431601 0.000000 -22.040600 0.000000 5.921090 16.557501 -5.388580 31.599300 -6.057090 -1.078003 47.749298 1.195950 14.881012 0.000000 20.978300 0.000000 4.798420 -9.485950 -14.134300 -2.676976 -9.915188 -2.813953 0.000000 0.000000 16.481701 -18.676668 12.663928 -7.427882 0.000000 0.000000 -19.880050 1.466797 17.684933 -4.284764 0.000000 0.000000 21.330099 32.603819 -7.057608 -14.493289 0.000000 0.000000 -15.776269 
-15.195375 8.910453 35.001371 178.425205 -1.541668 -178.880767 2.701122 1.186373 -20.469985 -6.974011 4.506644 20.086465 0.000000 0.000000 0.000000 14.240715 3.756715 14.843545 -8.803304 -6.502593 -83.349635 -26.613001 2.121260 5.203003 -44.178799 -7.269870 20.852400 0.000000 -22.226999 0.000000 6.237510 16.420300 -5.110830 31.557899 -6.014850 -1.011993 47.651501 1.245660 15.105988 0.000000 21.171200 0.000000 4.584710 -9.330240 -15.076400 -2.645781 -10.062864 -3.055812 0.000000 0.000000 16.592199 -18.673242 12.661540 -7.417455 0.000000 0.000000 -19.887630 1.421694 17.629634 -4.466615 0.000000 0.000000 21.381599 32.637037 -7.097006 -14.537505 0.000000 0.000000 -15.766379 
-15.193637 8.910602 35.004661 178.435780 -1.669030 -178.855674 2.685891 1.093631 -20.469596 -6.826878 4.503576 20.118389 0.000000 0.000000 0.000000 14.011804 3.952655 14.770575 -8.763085 -6.595251 -83.463869 -26.618000 2.106680 5.169006 -44.215599 -7.301350 21.161900 0.000000 -22.400499 0.000000 6.544670 16.335501 -4.575570 31.496000 -6.018090 -0.962006 47.559799 1.341690 15.339996 0.000000 21.316099 0.000000 4.496800 -9.340950 -14.572700 -2.609416 -10.172371 -3.166474 0.000000 0.000000 16.689100 -18.690701 12.634712 -7.411444 0.000000 0.000000 -19.904490 1.437674 17.482727 -4.487620 0.000000 0.000000 21.358999 32.604531 -7.117279 -14.522229 0.000000 0.000000 -15.773468 
-15.192335 8.910349 35.009695 178.422629 -1.748821 -178.814627 2.650517 1.019564 -20.439280 -6.682396 4.518961 20.093845 0.000000 0.000000 0.000000 13.896064 3.969058 14.660251 -8.921632 -6.647232 -83.424817 -26.614099 2.072270 5.199005 -44.280399 -7.318450 21.217199 0.000000 -22.567200 0.000000 6.843020 16.278299 -4.250200 31.449800 -6.038480 -0.941986 47.462898 1.420800 15.531006 0.000000 21.434601 0.000000 4.389080 -9.326710 -13.844300 -2.597667 -10.303480 -3.307281 0.000000 0.000000 16.809401 -18.708004 12.655230 -7.415939 0.000000 0.000000 -19.904510 1.414111 17.400460 -4.579086 0.000000 0.000000 21.413500 32.630893 -7.094770 -14.537735 0.000000 0.000000 -15.766629 
-15.190300 8.910486 35.015704 178.416571 -1.964680 -178.594231 2.556935 0.754781 -20.614770 -6.316448 4.530901 20.119180 0.000000 0.000000 0.000000 13.453402 4.186300 14.480619 -9.017752 -6.854757 -83.344855 -26.570601 2.114050 5.321014 -44.522202 -7.418660 21.186600 0.000000 -22.830799 0.000000 7.513440 16.216101 -3.670930 31.283501 -6.047240 -1.029999 47.328400 1.437070 15.985992 0.000000 21.617599 0.000000 4.238780 -9.380220 -13.305700 -2.536111 -10.526460 -3.695355 0.000000 0.000000 17.009899 -18.818377 12.609997 -7.422308 0.000000 0.000000 -19.962670 1.367554 17.232806 -4.827366 0.000000 0.000000 21.431000 32.631713 -7.202927 -14.596216 0.000000 0.000000 -15.712089 
-15.188845 8.910806 35.023359 178.413758 -2.249079 -178.467125 2.503307 0.559691 -20.564426 -6.132924 4.455821 19.947840 0.000000 0.000000 0.000000 13.029134 4.537899 14.542353 -9.129135 -7.022079 -83.361715 -26.570700 2.225400 5.372986 -44.603199 -7.435130 21.245300 0.000000 -23.086300 0.000000 7.893720 16.206699 -3.800530 31.254299 -6.102950 -1.102997 47.156700 1.349680 16.257996 0.000000 21.860100 0.000000 4.267360 -9.478310 -13.275400 -2.479198 -10.665112 -4.019119 0.000000 0.000000 17.218500 -18.814332 12.505764 -7.358210 0.000000 0.000000 -19.946870 1.322039 16.633229 -4.986006 0.000000 0.000000 21.429300 32.477516 -7.104282 -14.511021 0.000000 0.000000 -15.592816 
-15.190876 8.911728 35.030539 178.423673 -2.709163 -178.034876 2.528554 0.414950 -20.846172 -6.080439 4.325925 19.780894 0.000000 0.000000 0.000000 12.599938 4.883056 14.686781 -9.204410 -7.221702 -83.362670 -26.539101 2.338180 5.545013 -44.655300 -7.557750 21.290701 0.000000 -23.277901 0.000000 8.327460 16.053699 -3.909190 31.166000 -6.128870 -1.157013 47.109901 1.162600 16.381989 0.000000 22.109100 0.000000 4.057790 -9.229790 -13.295500 -2.357906 -10.852596 -4.677754 0.000000 0.000000 17.428101 -18.610386 12.384591 -7.220588 0.000000 0.000000 -19.974650 1.178768 15.336743 -5.363858 0.000000 0.000000 21.262300 32.245189 -6.665124 -14.210843 0.000000 0.000000 -15.535706 
-15.196425 8.912864 35.042901 178.452134 -3.181636 -177.532487 2.709860 0.569647 -21.033989 -6.338186 4.149823 19.425264 0.000000 0.000000 0.000000 12.277204 5.193087 15.027959 -9.422729 -7.387628 -83.411155 -26.476801 2.398170 5.729004 -44.613300 -7.675330 21.298500 0.000000 -23.407801 0.000000 8.652370 15.888600 -3.471330 31.247000 -6.220920 -1.552002 47.010899 0.592876 16.647003 0.000000 22.522200 0.000000 4.005760 -9.274160 -13.407300 -2.218071 -10.958091 -5.453347 0.000000 0.000000 17.662500 -18.403181 12.186007 -7.087389 0.000000 0.000000 -20.039560 0.999219 13.495677 -5.801635 0.000000 0.000000 20.980200 31.975154 -5.815766 -13.651012 0.000000 0.000000 -15.490554 
-15.202451 8.912985 35.055366 178.347467 -3.772476 -176.989769 2.741407 0.641393 -21.333403 -6.475866 4.116814 19.237282 0.000000 0.000000 0.000000 11.844698 5.494721 15.334279 -9.675932 -7.650870 -83.396927 -26.454201 2.468330 6.045990 -44.535301 -8.069600 21.355700 0.000000 -23.456400 0.000000 8.789270 15.556300 -3.498310 31.156799 -6.307900 -1.963989 47.096001 0.032046 16.800995 0.000000 22.759001 0.000000 4.128880 -9.284140 -13.701700 -2.173129 -11.079076 -6.261215 0.000000 0.000000 17.897600 -18.340006 11.716248 -6.935588 0.000000 0.000000 -20.245210 0.742532 12.472446 -6.450567 0.000000 0.000000 21.174200 31.755970 -5.587470 -13.567084 0.000000 0.000000 -15.517045 
-15.212591 8.912611 35.065455 178.274323 -4.805491 -176.635677 2.846383 0.673695 -21.572866 -6.685400 3.984571 19.198517 0.000000 0.000000 0.000000 11.441916 5.616397 15.751591 -9.926835 -8.042220 -83.353390 -26.402201 2.421440 6.312988 -44.452900 -8.468770 21.587700 0.000000 -23.438700 0.000000 8.965790 15.454200 -1.883530 31.007200 -6.387880 -2.157013 47.217499 -0.535468 16.890015 0.000000 23.158501 0.000000 4.160700 -9.265280 -13.966000 -2.124113 -11.393715 -6.936317 0.000000 0.000000 18.189400 -18.446633 10.962727 -6.880349 0.000000 0.000000 -20.592010 0.610046 11.519671 -6.818033 0.000000 0.000000 21.391500 31.782336 -5.624517 -13.745165 0.000000 0.000000 -15.522752 
-15.227132 8.911774 35.070738 178.225460 -6.020715 -176.284275 3.184598 1.075207 -21.660806 -7.488188 3.633211 18.716009 0.000000 0.000000 0.000000 11.278107 5.673341 16.940508 -10.373264 -8.429845 -83.423774 -26.147900 2.500230 6.944000 -44.251499 -9.019130 21.923800 0.000000 -23.327299 0.000000 9.095290 15.213300 -0.704074 31.169300 -6.504620 -1.700012 47.251999 -0.919553 16.667999 0.000000 23.444500 0.000000 4.257940 -9.020640 -14.540000 -2.070224 -12.013442 -7.655445 0.000000 0.000000 18.628901 -18.882245 10.383009 -7.163705 0.000000 0.000000 -20.982030 0.505365 10.107360 -7.038158 0.000000 0.000000 21.426300 31.773989 -5.448308 -13.806100 0.000000 0.000000 -15.540327 
-15.246347 8.909418 35.076817 178.140611 -7.729407 -176.224436 3.383864 1.069252 -21.840098 -7.816881 3.383907 18.869039 0.000000 0.000000 0.000000 10.762474 5.749266 17.931505 -10.576764 -9.099967 -83.231546 -26.104300 2.412030 7.326996 -44.053101 -9.656550 22.574900 0.000000 -23.205799 0.000000 9.096320 15.087600 -0.199327 31.032600 -6.351200 -1.446991 47.344200 -1.412050 16.350006 0.000000 23.564100 0.000000 4.736580 -9.015280 -14.857100 -2.110699 -13.043023 -8.225771 0.000000 0.000000 19.292200 -19.375750 10.154010 -7.727352 0.000000 0.000000 -21.328290 0.454867 8.895106 -6.921363 0.000000 0.000000 21.591700 32.116445 -5.575941 -14.222503 0.000000 0.000000 -15.600821 
